# Blender v3.3.1 OBJ File: 'getscop map.blend'
# www.blender.org
mtllib speakers.mtl
o Speakers
v -0.218689 5.799989 66.359100
v -0.218689 5.799990 62.359100
v -0.218689 -0.200011 66.359100
v -0.218689 -0.200010 62.359100
v 3.781310 5.799990 62.359100
v -0.218689 5.799990 62.359100
v 3.781310 5.799989 66.359100
v -0.218689 5.799989 66.359100
v -0.218689 5.799990 62.359100
v 3.781310 5.799990 62.359100
v -0.218689 -0.200010 62.359100
v 3.781310 -0.200010 62.359100
v 3.781310 5.799990 62.359100
v 3.781310 5.799989 66.359100
v 3.781310 -0.200010 62.359100
v 3.781310 -0.200011 66.359100
v 3.781310 -0.200011 66.359100
v -0.218689 -0.200011 66.359100
v 3.781310 -0.200010 62.359100
v -0.218689 -0.200010 62.359100
v 3.781310 5.799989 66.359100
v -0.218689 5.799989 66.359100
v 3.781310 -0.200011 66.359100
v -0.218689 -0.200011 66.359100
v 3.801310 5.799990 62.359100
v 3.801310 5.799989 66.359100
v 3.801310 -0.200010 62.359100
v 3.801310 -0.200011 66.359100
v -0.218689 5.799990 60.359100
v -0.218689 5.799991 56.359100
v -0.218689 -0.200010 60.359100
v -0.218689 -0.200009 56.359100
v 3.781310 5.799991 56.359100
v -0.218689 5.799991 56.359100
v 3.781310 5.799990 60.359100
v -0.218689 5.799990 60.359100
v -0.218689 5.799991 56.359100
v 3.781310 5.799991 56.359100
v -0.218689 -0.200009 56.359100
v 3.781310 -0.200009 56.359100
v 3.781310 5.799991 56.359100
v 3.781310 5.799990 60.359100
v 3.781310 -0.200009 56.359100
v 3.781310 -0.200010 60.359100
v 3.781310 -0.200010 60.359100
v -0.218689 -0.200010 60.359100
v 3.781310 -0.200009 56.359100
v -0.218689 -0.200009 56.359100
v 3.781310 5.799990 60.359100
v -0.218689 5.799990 60.359100
v 3.781310 -0.200010 60.359100
v -0.218689 -0.200010 60.359100
v 3.801310 5.799991 56.359100
v 3.801310 5.799990 60.359100
v 3.801310 -0.200009 56.359100
v 3.801310 -0.200010 60.359100
v -1.218690 12.999991 55.359104
v -1.218690 12.999992 49.359104
v -1.218690 -0.200009 55.359100
v -1.218690 -0.200008 49.359100
v 2.781310 12.999992 49.359104
v -1.218690 12.999992 49.359104
v 2.781310 12.999991 55.359104
v -1.218690 12.999991 55.359104
v -1.218690 12.999992 49.359104
v 2.781310 12.999992 49.359104
v -1.218690 -0.200008 49.359100
v 2.781310 -0.200008 49.359100
v 2.781310 12.999992 49.359104
v 2.781310 12.999991 55.359104
v 2.781310 -0.200008 49.359100
v 2.781310 -0.200009 55.359100
v 2.781310 -0.200009 55.359100
v -1.218690 -0.200009 55.359100
v 2.781310 -0.200008 49.359100
v -1.218690 -0.200008 49.359100
v 2.781310 12.999991 55.359104
v -1.218690 12.999991 55.359104
v 2.781310 -0.200009 55.359100
v -1.218690 -0.200009 55.359100
v 2.801310 12.999992 49.359104
v 2.801310 12.999991 55.359104
v 2.801310 -0.200008 49.359100
v 2.801310 -0.200009 55.359100
v -1.218690 12.999993 40.359104
v -1.218690 12.999994 34.359104
v -1.218690 -0.200007 40.359100
v -1.218690 -0.200006 34.359100
v 2.781310 12.999994 34.359104
v -1.218690 12.999994 34.359104
v 2.781310 12.999993 40.359104
v -1.218690 12.999993 40.359104
v -1.218690 12.999994 34.359104
v 2.781310 12.999994 34.359104
v -1.218690 -0.200006 34.359100
v 2.781310 -0.200006 34.359100
v 2.781310 12.999994 34.359104
v 2.781310 12.999993 40.359104
v 2.781310 -0.200006 34.359100
v 2.781310 -0.200007 40.359100
v 2.781310 -0.200007 40.359100
v -1.218690 -0.200007 40.359100
v 2.781310 -0.200006 34.359100
v -1.218690 -0.200006 34.359100
v 2.781310 12.999993 40.359104
v -1.218690 12.999993 40.359104
v 2.781310 -0.200007 40.359100
v -1.218690 -0.200007 40.359100
v 2.801310 12.999994 34.359104
v 2.801310 12.999993 40.359104
v 2.801310 -0.200006 34.359100
v 2.801310 -0.200007 40.359100
v -1.218690 5.799992 48.359100
v -1.218690 5.799994 41.359100
v -1.218690 -0.200008 48.359100
v -1.218690 -0.200007 41.359100
v 2.781310 5.799994 41.359100
v -1.218690 5.799994 41.359100
v 2.781310 5.799992 48.359100
v -1.218690 5.799992 48.359100
v -1.218690 5.799994 41.359100
v 2.781310 5.799994 41.359100
v -1.218690 -0.200007 41.359100
v 2.781310 -0.200007 41.359100
v 2.781310 5.799994 41.359100
v 2.781310 5.799992 48.359100
v 2.781310 -0.200007 41.359100
v 2.781310 -0.200008 48.359100
v 2.781310 -0.200008 48.359100
v -1.218690 -0.200008 48.359100
v 2.781310 -0.200007 41.359100
v -1.218690 -0.200007 41.359100
v 2.781310 5.799992 48.359100
v -1.218690 5.799992 48.359100
v 2.781310 -0.200008 48.359100
v -1.218690 -0.200008 48.359100
v 2.801310 5.799994 41.359100
v 2.801310 5.799992 48.359100
v 2.801310 -0.200007 41.359100
v 2.801310 -0.200008 48.359100
v -1.218690 5.799994 34.359100
v -1.218690 5.799995 30.359100
v -1.218690 -0.200006 34.359100
v -1.218690 -0.200005 30.359100
v 2.781310 5.799995 30.359100
v -1.218690 5.799995 30.359100
v 2.781310 5.799994 34.359100
v -1.218690 5.799994 34.359100
v -1.218690 5.799995 30.359100
v 2.781310 5.799995 30.359100
v -1.218690 -0.200005 30.359100
v 2.781310 -0.200005 30.359100
v 2.781310 5.799995 30.359100
v 2.781310 5.799994 34.359100
v 2.781310 -0.200005 30.359100
v 2.781310 -0.200006 34.359100
v 2.781310 -0.200006 34.359100
v -1.218690 -0.200006 34.359100
v 2.781310 -0.200005 30.359100
v -1.218690 -0.200005 30.359100
v 2.781310 5.799994 34.359100
v -1.218690 5.799994 34.359100
v 2.781310 -0.200006 34.359100
v -1.218690 -0.200006 34.359100
v 2.801310 5.799995 30.359100
v 2.801310 5.799994 34.359100
v 2.801310 -0.200005 30.359100
v 2.801310 -0.200006 34.359100
v -1.218690 5.799995 28.359100
v -1.218690 5.799996 24.359100
v -1.218690 -0.200005 28.359100
v -1.218690 -0.200004 24.359100
v 2.781310 5.799996 24.359100
v -1.218690 5.799996 24.359100
v 2.781310 5.799995 28.359100
v -1.218690 5.799995 28.359100
v -1.218690 5.799996 24.359100
v 2.781310 5.799996 24.359100
v -1.218690 -0.200004 24.359100
v 2.781310 -0.200004 24.359100
v 2.781310 5.799996 24.359100
v 2.781310 5.799995 28.359100
v 2.781310 -0.200004 24.359100
v 2.781310 -0.200005 28.359100
v 2.781310 -0.200005 28.359100
v -1.218690 -0.200005 28.359100
v 2.781310 -0.200004 24.359100
v -1.218690 -0.200004 24.359100
v 2.781310 5.799995 28.359100
v -1.218690 5.799995 28.359100
v 2.781310 -0.200005 28.359100
v -1.218690 -0.200005 28.359100
v 2.801310 5.799996 24.359100
v 2.801310 5.799995 28.359100
v 2.801310 -0.200004 24.359100
v 2.801310 -0.200005 28.359100
vt 0.528236 0.456066
vt 0.528236 0.439059
vt 0.546551 0.439059
vt 0.546551 0.456066
vt 0.528236 0.456066
vt 0.528236 0.430556
vt 0.546551 0.430556
vt 0.546551 0.456066
vt 0.528236 0.456066
vt 0.528236 0.430556
vt 0.546551 0.430556
vt 0.546551 0.456066
vt 0.528236 0.456066
vt 0.528236 0.439059
vt 0.546551 0.439059
vt 0.546551 0.456066
vt 0.528236 0.456066
vt 0.528236 0.430556
vt 0.546551 0.430556
vt 0.546551 0.456066
vt 0.001984 0.998016
vt 0.001984 0.509921
vt 0.505952 0.509921
vt 0.505952 0.998016
vt 0.537393 0.473073
vt 0.537393 0.447562
vt 0.555708 0.447562
vt 0.555708 0.473073
vt 0.537393 0.473073
vt 0.537393 0.456066
vt 0.555708 0.456066
vt 0.555708 0.473073
vt 0.537393 0.473073
vt 0.537393 0.447562
vt 0.555708 0.447562
vt 0.555708 0.473073
vt 0.537393 0.473073
vt 0.537393 0.447562
vt 0.555708 0.447562
vt 0.555708 0.473073
vt 0.537393 0.473073
vt 0.537393 0.456066
vt 0.555708 0.456066
vt 0.555708 0.473073
vt 0.537393 0.473073
vt 0.537393 0.447562
vt 0.555708 0.447562
vt 0.555708 0.473073
vt 0.001984 0.998016
vt 0.001984 0.509921
vt 0.505952 0.509921
vt 0.505952 0.998016
vt 0.509921 0.490079
vt 0.509921 0.433957
vt 0.537393 0.433957
vt 0.537393 0.490079
vt 0.509921 0.456066
vt 0.509921 0.430556
vt 0.528236 0.430556
vt 0.528236 0.456066
vt 0.509921 0.490079
vt 0.509921 0.433957
vt 0.528236 0.433957
vt 0.528236 0.490079
vt 0.509921 0.490079
vt 0.509921 0.433957
vt 0.537393 0.433957
vt 0.537393 0.490079
vt 0.509921 0.456066
vt 0.509921 0.430556
vt 0.528236 0.430556
vt 0.528236 0.456066
vt 0.509921 0.490079
vt 0.509921 0.433957
vt 0.528236 0.433957
vt 0.528236 0.490079
vt 0.509921 0.998016
vt 0.509921 0.494048
vt 0.831349 0.494048
vt 0.831349 0.998016
vt 0.528236 0.490079
vt 0.528236 0.433957
vt 0.555708 0.433957
vt 0.555708 0.490079
vt 0.528236 0.456066
vt 0.528236 0.430556
vt 0.546551 0.430556
vt 0.546551 0.456066
vt 0.528236 0.490079
vt 0.528236 0.433957
vt 0.546551 0.433957
vt 0.546551 0.490079
vt 0.528236 0.490079
vt 0.528236 0.433957
vt 0.555708 0.433957
vt 0.555708 0.490079
vt 0.528236 0.456066
vt 0.528236 0.430556
vt 0.546551 0.430556
vt 0.546551 0.456066
vt 0.528236 0.490079
vt 0.528236 0.433957
vt 0.546551 0.433957
vt 0.546551 0.490079
vt 0.509921 0.998016
vt 0.509921 0.494048
vt 0.831349 0.494048
vt 0.831349 0.998016
vt 0.537393 0.473073
vt 0.537393 0.447562
vt 0.569444 0.447562
vt 0.569444 0.473073
vt 0.537393 0.473073
vt 0.537393 0.443311
vt 0.555708 0.443311
vt 0.555708 0.473073
vt 0.537393 0.473073
vt 0.537393 0.447562
vt 0.555708 0.447562
vt 0.555708 0.473073
vt 0.537393 0.473073
vt 0.537393 0.447562
vt 0.569444 0.447562
vt 0.569444 0.473073
vt 0.537393 0.473073
vt 0.537393 0.443311
vt 0.555708 0.443311
vt 0.555708 0.473073
vt 0.537393 0.473073
vt 0.537393 0.447562
vt 0.555708 0.447562
vt 0.555708 0.473073
vt 0.001984 0.505952
vt 0.001984 0.001984
vt 0.482143 0.001984
vt 0.482143 0.505952
vt 0.528236 0.456066
vt 0.528236 0.430556
vt 0.546551 0.430556
vt 0.546551 0.456066
vt 0.528236 0.456066
vt 0.528236 0.439059
vt 0.546551 0.439059
vt 0.546551 0.456066
vt 0.528236 0.456066
vt 0.528236 0.430556
vt 0.546551 0.430556
vt 0.546551 0.456066
vt 0.528236 0.456066
vt 0.528236 0.430556
vt 0.546551 0.430556
vt 0.546551 0.456066
vt 0.528236 0.456066
vt 0.528236 0.439059
vt 0.546551 0.439059
vt 0.546551 0.456066
vt 0.528236 0.456066
vt 0.528236 0.430556
vt 0.546551 0.430556
vt 0.546551 0.456066
vt 0.001984 0.998016
vt 0.001984 0.509921
vt 0.505952 0.509921
vt 0.505952 0.998016
vt 0.509921 0.456066
vt 0.509921 0.430556
vt 0.528236 0.430556
vt 0.528236 0.456066
vt 0.509921 0.456066
vt 0.509921 0.439059
vt 0.528236 0.439059
vt 0.528236 0.456066
vt 0.509921 0.456066
vt 0.509921 0.430556
vt 0.528236 0.430556
vt 0.528236 0.456066
vt 0.509921 0.456066
vt 0.509921 0.430556
vt 0.528236 0.430556
vt 0.528236 0.456066
vt 0.509921 0.456066
vt 0.509921 0.439059
vt 0.528236 0.439059
vt 0.528236 0.456066
vt 0.509921 0.456066
vt 0.509921 0.430556
vt 0.528236 0.430556
vt 0.528236 0.456066
vt 0.001984 0.998016
vt 0.001984 0.509921
vt 0.505952 0.509921
vt 0.505952 0.998016
vt 0.528236 0.456066
vt 0.528236 0.430556
vt 0.546551 0.430556
vt 0.546551 0.456066
vn 0.0000 1.0000 0.0000
vn 0.0000 0.0000 -1.0000
vn 1.0000 0.0000 0.0000
vn 0.0000 -1.0000 -0.0000
vn 0.0000 0.0000 1.0000
vn -1.0000 0.0000 0.0000
usemtl material_atlas_00004_1
s 1
f 6/1/1 8/2/1 7/3/1 5/4/1
f 10/5/2 12/6/2 11/7/2 9/8/2
f 14/9/3 16/10/3 15/11/3 13/12/3
f 18/13/4 20/14/4 19/15/4 17/16/4
f 22/17/5 24/18/5 23/19/5 21/20/5
f 26/21/3 28/22/3 27/23/3 25/24/3
f 30/25/6 32/26/6 31/27/6 29/28/6
f 34/29/1 36/30/1 35/31/1 33/32/1
f 38/33/2 40/34/2 39/35/2 37/36/2
f 42/37/3 44/38/3 43/39/3 41/40/3
f 46/41/4 48/42/4 47/43/4 45/44/4
f 50/45/5 52/46/5 51/47/5 49/48/5
f 54/49/3 56/50/3 55/51/3 53/52/3
f 58/53/6 60/54/6 59/55/6 57/56/6
f 62/57/1 64/58/1 63/59/1 61/60/1
f 66/61/2 68/62/2 67/63/2 65/64/2
f 70/65/3 72/66/3 71/67/3 69/68/3
f 74/69/4 76/70/4 75/71/4 73/72/4
f 78/73/5 80/74/5 79/75/5 77/76/5
f 82/77/3 84/78/3 83/79/3 81/80/3
f 86/81/6 88/82/6 87/83/6 85/84/6
f 90/85/1 92/86/1 91/87/1 89/88/1
f 94/89/2 96/90/2 95/91/2 93/92/2
f 98/93/3 100/94/3 99/95/3 97/96/3
f 102/97/4 104/98/4 103/99/4 101/100/4
f 106/101/5 108/102/5 107/103/5 105/104/5
f 110/105/3 112/106/3 111/107/3 109/108/3
f 114/109/6 116/110/6 115/111/6 113/112/6
f 118/113/1 120/114/1 119/115/1 117/116/1
f 122/117/2 124/118/2 123/119/2 121/120/2
f 126/121/3 128/122/3 127/123/3 125/124/3
f 130/125/4 132/126/4 131/127/4 129/128/4
f 134/129/5 136/130/5 135/131/5 133/132/5
f 138/133/3 140/134/3 139/135/3 137/136/3
f 142/137/6 144/138/6 143/139/6 141/140/6
f 146/141/1 148/142/1 147/143/1 145/144/1
f 150/145/2 152/146/2 151/147/2 149/148/2
f 154/149/3 156/150/3 155/151/3 153/152/3
f 158/153/4 160/154/4 159/155/4 157/156/4
f 162/157/5 164/158/5 163/159/5 161/160/5
f 166/161/3 168/162/3 167/163/3 165/164/3
f 170/165/6 172/166/6 171/167/6 169/168/6
f 174/169/1 176/170/1 175/171/1 173/172/1
f 178/173/2 180/174/2 179/175/2 177/176/2
f 182/177/3 184/178/3 183/179/3 181/180/3
f 186/181/4 188/182/4 187/183/4 185/184/4
f 190/185/5 192/186/5 191/187/5 189/188/5
f 194/189/3 196/190/3 195/191/3 193/192/3
f 2/193/6 4/194/6 3/195/6 1/196/6
