# Blender v3.3.1 OBJ File: 'getscop map.blend'
# www.blender.org
mtllib baseplate.mtl
o Baseplate_Door.001
v -5.640880 6.238279 3.881391
v -5.640880 6.238277 16.718601
v -5.640880 -8.261721 3.881389
v -5.640880 -8.261723 16.718597
v 26.900000 -8.261719 -5.500001
v 26.900000 -8.261724 22.399998
v 26.900000 -11.738299 -5.500002
v 26.900000 -11.738304 22.399998
v -6.000030 -8.261724 22.399998
v 26.900000 -8.261724 22.399998
v -6.000030 -8.261719 -5.500001
v 26.900000 -8.261719 -5.500001
v 26.900000 -8.261724 22.399998
v -6.000030 -8.261724 22.399998
v 26.900000 -11.738304 22.399998
v -6.000030 -11.738304 22.399998
v -6.000030 -8.261724 22.399998
v -6.000030 -8.261719 -5.500001
v -6.000030 -11.738304 22.399998
v -6.000030 -11.738299 -5.500002
v -6.000030 -11.738299 -5.500002
v 26.900000 -11.738299 -5.500002
v -6.000030 -11.738304 22.399998
v 26.900000 -11.738304 22.399998
v -6.000030 -8.261719 -5.500001
v 26.900000 -8.261719 -5.500001
v -6.000030 -11.738299 -5.500002
v 26.900000 -11.738299 -5.500002
v 7.799970 -7.861722 11.899999
v 7.799970 -7.861723 16.699999
v 7.799970 -8.261722 11.899999
v 7.799970 -8.261723 16.699999
v 2.999970 -7.861723 16.699999
v 7.799970 -7.861723 16.699999
v 2.999970 -7.861722 11.899999
v 7.799970 -7.861722 11.899999
v 7.799970 -7.861723 16.699999
v 2.999970 -7.861723 16.699999
v 7.799970 -8.261723 16.699999
v 2.999970 -8.261723 16.699999
v 2.999970 -7.861723 16.699999
v 2.999970 -7.861722 11.899999
v 2.999970 -8.261723 16.699999
v 2.999970 -8.261722 11.899999
v 2.999970 -8.261722 11.899999
v 7.799970 -8.261722 11.899999
v 2.999970 -8.261723 16.699999
v 7.799970 -8.261723 16.699999
v 2.999970 -7.861722 11.899999
v 7.799970 -7.861722 11.899999
v 2.999970 -8.261722 11.899999
v 7.799970 -8.261722 11.899999
v 2.999970 -7.841723 16.699999
v 7.799970 -7.841723 16.699999
v 2.999970 -7.841722 11.899999
v 7.799970 -7.841722 11.899999
vt 0.001953 0.998047
vt 0.001953 0.501953
vt 0.498047 0.501953
vt 0.498047 0.998047
vt 0.010991 0.451172
vt 0.010991 0.444382
vt 0.060547 0.444382
vt 0.060547 0.451172
vt 0.064453 0.498047
vt 0.064453 0.495117
vt 0.099609 0.495117
vt 0.099609 0.498047
vt 0.064453 0.498047
vt 0.064453 0.462891
vt 0.099609 0.462891
vt 0.099609 0.498047
vt 0.010991 0.498047
vt 0.010991 0.443555
vt 0.060547 0.443555
vt 0.060547 0.498047
vt 0.064453 0.498047
vt 0.064453 0.495117
vt 0.099609 0.495117
vt 0.099609 0.498047
vt 0.010991 0.498047
vt 0.010991 0.443555
vt 0.060547 0.443555
vt 0.060547 0.498047
vt 0.010991 0.451172
vt 0.010991 0.444382
vt 0.060547 0.444382
vt 0.060547 0.451172
vt 0.501953 0.998047
vt 0.501953 0.501953
vt 0.998047 0.501953
vt 0.998047 0.998047
vt 0.064453 0.498047
vt 0.064453 0.462891
vt 0.099609 0.462891
vt 0.099609 0.498047
vt 0.064453 0.498047
vt 0.064453 0.495117
vt 0.099609 0.495117
vt 0.099609 0.498047
vt 0.010991 0.451172
vt 0.010991 0.444382
vt 0.053016 0.444382
vt 0.053016 0.451172
vt 0.064453 0.498047
vt 0.064453 0.495117
vt 0.099609 0.495117
vt 0.099609 0.498047
vt 0.010991 0.451172
vt 0.010991 0.444382
vt 0.053016 0.444382
vt 0.053016 0.451172
vn 1.0000 -0.0000 0.0000
vn 0.0000 0.0000 -1.0000
vn 0.0000 1.0000 0.0000
vn 0.0000 -1.0000 -0.0000
vn -1.0000 0.0000 0.0000
vn 0.0000 0.0000 1.0000
usemtl material_atlas_00006_1
s 1
f 2/1/1 4/2/1 3/3/1 1/4/1
f 26/5/2 28/6/2 27/7/2 25/8/2
f 30/9/1 32/10/1 31/11/1 29/12/1
f 34/13/3 36/14/3 35/15/3 33/16/3
f 22/17/4 24/18/4 23/19/4 21/20/4
f 42/21/5 44/22/5 43/23/5 41/24/5
f 10/25/3 12/26/3 11/27/3 9/28/3
f 14/29/6 16/30/6 15/31/6 13/32/6
f 54/33/3 56/34/3 55/35/3 53/36/3
f 46/37/4 48/38/4 47/39/4 45/40/4
f 50/41/2 52/42/2 51/43/2 49/44/2
f 18/45/5 20/46/5 19/47/5 17/48/5
f 38/49/6 40/50/6 39/51/6 37/52/6
f 6/53/1 8/54/1 7/55/1 5/56/1
